<svg width="24.000000" height="24.000000" viewBox="0 0 24 24" fill="none" xmlns="http://www.w3.org/2000/svg" xmlns:xlink="http://www.w3.org/1999/xlink">
	<desc>
			Created with Pixso.
	</desc>
	<defs>
		<clipPath id="clip1_1684">
			<rect id="Frame" width="24.000000" height="24.000000" fill="white" fill-opacity="0"/>
		</clipPath>
	</defs>
	<rect id="Frame" width="24.000000" height="24.000000" fill="#FFFFFF" fill-opacity="0"/>
	<g clip-path="url(#clip1_1684)">
		<path id="Vector" d="M12 2C6.47998 2 2 6.48 2 12C2 17.52 6.47998 22 12 22C17.52 22 22 17.52 22 12C22 6.48 17.52 2 12 2ZM13 19L11 19L11 17L13 17L13 19ZM15.0701 11.25L14.1699 12.17C13.45 12.9 13 13.5 13 15L11 15L11 14.5C11 13.4 11.45 12.4 12.1699 11.67L13.4099 10.41C13.78 10.05 14 9.55 14 9C14 7.9 13.1001 7 12 7C10.8999 7 10 7.9 10 9L8 9C8 6.79 9.79004 5 12 5C14.21 5 16 6.79 16 9C16 9.88 15.6399 10.68 15.0701 11.25Z" fill="#000000" fill-opacity="1.000000" fill-rule="nonzero"/>
	</g>
</svg>
