<svg width="24.000000" height="24.000000" viewBox="0 0 24 24" fill="none" xmlns="http://www.w3.org/2000/svg" xmlns:xlink="http://www.w3.org/1999/xlink">
	<desc>
			Created with Pixso.
	</desc>
	<defs>
		<clipPath id="clip1_1681">
			<rect id="Frame" width="24.000000" height="24.000000" fill="white" fill-opacity="0"/>
		</clipPath>
	</defs>
	<rect id="Frame" width="24.000000" height="24.000000" fill="#FFFFFF" fill-opacity="0"/>
	<g clip-path="url(#clip1_1681)">
		<path id="Vector" d="M15.5 14L14.7 14L14.3999 13.7C15.3999 12.6 16 11.1 16 9.5C16 5.9 13.1001 3 9.5 3C5.8999 3 3 5.9 3 9.5C3 13.1 5.8999 16 9.5 16C11.1001 16 12.6001 15.4 13.7 14.4L14 14.7L14 15.5L19 20.5L20.5 19L15.5 14ZM9.5 14C7 14 5 12 5 9.5C5 7 7 5 9.5 5C12 5 14 7 14 9.5C14 12 12 14 9.5 14Z" fill="#000000" fill-opacity="1.000000" fill-rule="nonzero"/>
	</g>
</svg>
